<svg width="19" height="19" viewBox="0 0 19 19" fill="none" xmlns="http://www.w3.org/2000/svg">
<path d="M7.34835 4.2689H5.80528C5.39603 4.2689 5.00354 4.43147 4.71416 4.72086C4.42478 5.01024 4.26221 5.40272 4.26221 5.81197V15.0704C4.26221 15.4796 4.42478 15.8721 4.71416 16.1615C5.00354 16.4509 5.39603 16.6135 5.80528 16.6135H13.5206C13.9299 16.6135 14.3224 16.4509 14.6117 16.1615C14.9011 15.8721 15.0637 15.4796 15.0637 15.0704V5.81197C15.0637 5.40272 14.9011 5.01024 14.6117 4.72086C14.3224 4.43147 13.9299 4.2689 13.5206 4.2689H11.9776M7.34835 4.2689C7.34835 3.85965 7.51092 3.46717 7.8003 3.17779C8.08969 2.8884 8.48217 2.72583 8.89142 2.72583H10.4345C10.8437 2.72583 11.2362 2.8884 11.5256 3.17779C11.815 3.46717 11.9776 3.85965 11.9776 4.2689M7.34835 4.2689C7.34835 4.67815 7.51092 5.07064 7.8003 5.36002C8.08969 5.6494 8.48217 5.81197 8.89142 5.81197H10.4345C10.8437 5.81197 11.2362 5.6494 11.5256 5.36002C11.815 5.07064 11.9776 4.67815 11.9776 4.2689M7.34835 13.5273V10.4412M9.66296 13.5273V12.7558M11.9776 13.5273V11.9843" stroke="#7D7D7D" stroke-width="1.44663" stroke-linecap="round" stroke-linejoin="round"/>
</svg>
