<svg width="17" height="16" viewBox="0 0 17 16" fill="none" xmlns="http://www.w3.org/2000/svg">
<path d="M11.9329 6.66669L10.5996 2.66669M5.26628 6.66669L6.59961 2.66669M7.93292 13.3334H5.42892C4.95119 13.3333 4.48924 13.1623 4.12668 12.8512C3.76411 12.5401 3.52487 12.1095 3.45226 11.6374L2.61559 6.86935C2.58637 6.67934 2.59858 6.48526 2.65139 6.30041C2.7042 6.11556 2.79636 5.94432 2.92155 5.79842C3.04674 5.65253 3.202 5.53543 3.37669 5.45515C3.55137 5.37488 3.74135 5.33333 3.93359 5.33335H13.2663C13.4585 5.33333 13.6485 5.37488 13.8232 5.45515C13.9978 5.53543 14.1531 5.65253 14.2783 5.79842C14.4035 5.94432 14.4956 6.11556 14.5485 6.30041C14.6013 6.48526 14.6135 6.67934 14.5843 6.86935L14.2649 8.68869M10.5996 12.6667L11.9329 14L14.5996 11.3334M7.26628 9.33335C7.26628 9.68698 7.40675 10.0261 7.6568 10.2762C7.90685 10.5262 8.24599 10.6667 8.59961 10.6667C8.95323 10.6667 9.29237 10.5262 9.54242 10.2762C9.79247 10.0261 9.93294 9.68698 9.93294 9.33335C9.93294 8.97973 9.79247 8.64059 9.54242 8.39054C9.29237 8.1405 8.95323 8.00002 8.59961 8.00002C8.24599 8.00002 7.90685 8.1405 7.6568 8.39054C7.40675 8.64059 7.26628 8.97973 7.26628 9.33335Z" stroke="#131313" stroke-width="1.25" stroke-linecap="round" stroke-linejoin="round"/>
</svg>
