<svg width="16" height="16" viewBox="0 0 16 16" fill="none" xmlns="http://www.w3.org/2000/svg">
<path d="M11.5207 6.22785L9.97759 1.59863M3.8053 6.22785L5.34837 1.59863M6.89142 13.9432H3.99354C3.44065 13.9432 2.90604 13.7452 2.48644 13.3852C2.06684 13.0252 1.78997 12.5269 1.70593 11.9804L0.737656 6.46239C0.703839 6.24249 0.717973 6.01788 0.779092 5.80395C0.84021 5.59003 0.946867 5.39185 1.09175 5.223C1.23663 5.05415 1.41631 4.91864 1.61847 4.82573C1.82064 4.73283 2.0405 4.68475 2.26298 4.68477H13.0637C13.2862 4.68475 13.5061 4.73283 13.7082 4.82573C13.9104 4.91864 14.0901 5.05415 14.2349 5.223C14.3798 5.39185 14.4865 5.59003 14.5476 5.80395C14.6087 6.01788 14.6229 6.24249 14.589 6.46239L14.2195 8.56791M9.97759 13.1717L11.5207 14.7147L14.6068 11.6286M6.11991 9.31399C6.11991 9.72324 6.28248 10.1157 6.57187 10.4051C6.86125 10.6945 7.25373 10.8571 7.66298 10.8571C8.07223 10.8571 8.46472 10.6945 8.7541 10.4051C9.04348 10.1157 9.20605 9.72324 9.20605 9.31399C9.20605 8.90474 9.04348 8.51225 8.7541 8.22287C8.46472 7.93349 8.07223 7.77092 7.66298 7.77092C7.25373 7.77092 6.86125 7.93349 6.57187 8.22287C6.28248 8.51225 6.11991 8.90474 6.11991 9.31399Z" stroke="#7D7D7D" stroke-width="1.44663" stroke-linecap="round" stroke-linejoin="round"/>
</svg>
