<svg width="17" height="16" viewBox="0 0 17 16" fill="none" xmlns="http://www.w3.org/2000/svg">
<path d="M3.26611 4C3.26611 5.10467 5.65411 6 8.59945 6C11.5448 6 13.9328 5.10467 13.9328 4M3.26611 4C3.26611 2.89533 5.65411 2 8.59945 2C11.5448 2 13.9328 2.89533 13.9328 4M3.26611 4V8M13.9328 4V8M3.26611 8C3.26611 9.10467 5.65411 10 8.59945 10C9.34478 10 10.0548 9.94267 10.6994 9.83933M3.26611 8V12C3.26611 13.1047 5.65411 14 8.59945 14C8.70411 14 8.80745 13.9987 8.91011 13.9967M11.2661 12.6667H15.2661M15.2661 12.6667L13.2661 10.6667M15.2661 12.6667L13.2661 14.6667" stroke="#131313" stroke-width="1.25" stroke-linecap="round" stroke-linejoin="round"/>
</svg>
