<svg width="17" height="17" viewBox="0 0 17 17" fill="none" xmlns="http://www.w3.org/2000/svg">
<path d="M1.49023 3.69205C1.49023 4.97048 4.25387 6.00665 7.66252 6.00665C11.0712 6.00665 13.8348 4.97048 13.8348 3.69205M1.49023 3.69205C1.49023 2.41361 4.25387 1.37744 7.66252 1.37744C11.0712 1.37744 13.8348 2.41361 13.8348 3.69205M1.49023 3.69205V8.32126M13.8348 3.69205V8.32126M1.49023 8.32126C1.49023 9.5997 4.25387 10.6359 7.66252 10.6359C8.5251 10.6359 9.34678 10.5695 10.0929 10.4499M1.49023 8.32126V12.9505C1.49023 14.2289 4.25387 15.2651 7.66252 15.2651C7.78365 15.2651 7.90324 15.2635 8.02205 15.2612M10.7487 13.722H15.3779M15.3779 13.722L13.0633 11.4074M15.3779 13.722L13.0633 16.0366" stroke="#7D7D7D" stroke-width="1.44663" stroke-linecap="round" stroke-linejoin="round"/>
</svg>
