<svg width="29" height="15" viewBox="0 0 29 15" fill="none" xmlns="http://www.w3.org/2000/svg">
<rect x="6.67871" y="8.20605" width="5.63906" height="5.63906" rx="2.81953" transform="rotate(90 6.67871 8.20605)" fill="#FAFAFA" stroke="#454545" stroke-width="1.69172"/>
<rect x="22.1846" y="6.79688" width="5.63906" height="5.63906" rx="2.81953" transform="rotate(-90 22.1846 6.79688)" fill="#FAFAFA" stroke="#454545" stroke-width="1.69172"/>
<path d="M23.5965 5.38633L21.4818 7.50097C20.048 8.93478 19.3311 9.65168 18.4688 9.81072C18.1307 9.87308 17.7841 9.87308 17.446 9.81072C16.5837 9.65168 15.8668 8.93478 14.433 7.50097V7.50097C12.9992 6.06717 12.2823 5.35026 11.42 5.19122C11.0819 5.12886 10.7353 5.12886 10.3972 5.19122C9.53489 5.35026 8.81798 6.06717 7.38417 7.50097L5.26953 9.61562" stroke="#454545" stroke-width="1.69172"/>
</svg>
