<svg width="23" height="12" viewBox="0 0 23 12" fill="none" xmlns="http://www.w3.org/2000/svg">
<rect x="5.7832" y="6.54102" width="4.32421" height="4.32421" rx="2.16211" transform="rotate(90 5.7832 6.54102)" fill="white" stroke="#7D7D7D" stroke-width="1.29726"/>
<rect x="17.6738" y="5.45996" width="4.32421" height="4.32421" rx="2.16211" transform="rotate(-90 17.6738 5.45996)" fill="white" stroke="#7D7D7D" stroke-width="1.29726"/>
<path d="M18.7558 4.37988L17.1343 6.00146C16.0348 7.10095 15.485 7.6507 14.8238 7.77266C14.5645 7.82048 14.2987 7.82048 14.0395 7.77266C13.3782 7.6507 12.8285 7.10095 11.729 6.00146V6.00146C10.6295 4.90197 10.0798 4.35223 9.41854 4.23027C9.15927 4.18245 8.89345 4.18245 8.63418 4.23027C7.97296 4.35223 7.42322 4.90197 6.32373 6.00146L4.70215 7.62304" stroke="#7D7D7D" stroke-width="1.29726"/>
</svg>
