<svg width="23" height="12" viewBox="0 0 23 12" fill="none" xmlns="http://www.w3.org/2000/svg">
<rect x="5.35303" y="6.54199" width="4.33694" height="4.33694" rx="2.16847" transform="rotate(90 5.35303 6.54199)" fill="#FAFAFA" stroke="#7D7D7D" stroke-width="1.30108"/>
<rect x="17.2793" y="5.45801" width="4.33694" height="4.33694" rx="2.16847" transform="rotate(-90 17.2793 5.45801)" fill="#FAFAFA" stroke="#7D7D7D" stroke-width="1.30108"/>
<path d="M18.3641 4.37427L16.7377 6.00063C15.635 7.10335 15.0837 7.65472 14.4205 7.77703C14.1605 7.82499 13.8939 7.82499 13.6338 7.77703C12.9707 7.65472 12.4193 7.10335 11.3166 6.00063V6.00063C10.2138 4.8979 9.66248 4.34654 8.99931 4.22422C8.73929 4.17626 8.47268 4.17626 8.21265 4.22422C7.54948 4.34654 6.99812 4.8979 5.8954 6.00063L4.26904 7.62698" stroke="#7D7D7D" stroke-width="1.30108"/>
</svg>
