<svg width="19" height="16" viewBox="0 0 19 16" fill="none" xmlns="http://www.w3.org/2000/svg">
<path fill-rule="evenodd" clip-rule="evenodd" d="M9.27952 7.82299C8.69609 7.82299 8.22313 8.27923 8.22313 8.84204C8.22313 9.40484 8.69609 9.86109 9.27952 9.86109C9.86295 9.86109 10.3359 9.40484 10.3359 8.84204C10.3359 8.27923 9.86295 7.82299 9.27952 7.82299ZM6.95547 8.84204C6.95547 7.60386 7.99598 6.60013 9.27952 6.60013C10.5631 6.60013 11.6036 7.60386 11.6036 8.84204C11.6036 10.0802 10.5631 11.0839 9.27952 11.0839C7.99598 11.0839 6.95547 10.0802 6.95547 8.84204Z" fill="white"/>
<path fill-rule="evenodd" clip-rule="evenodd" d="M9.27952 4.56203C8.402 4.56203 7.54418 4.81304 6.81455 5.28334C6.08492 5.75363 5.51624 6.42208 5.18043 7.20415C4.84461 7.98622 4.75675 8.84678 4.92794 9.67702C5.09914 10.5073 5.52171 11.2699 6.14221 11.8685C6.38974 12.1072 6.38974 12.4944 6.14221 12.7332C5.89468 12.9719 5.49336 12.9719 5.24583 12.7332C4.44805 11.9636 3.90475 10.983 3.68464 9.91559C3.46453 8.84814 3.5775 7.7417 4.00926 6.73618C4.44102 5.73066 5.17217 4.87123 6.11027 4.26657C7.04837 3.6619 8.15128 3.33917 9.27952 3.33917C10.4078 3.33917 11.5107 3.6619 12.4488 4.26657C13.3869 4.87123 14.118 5.73066 14.5498 6.73618C14.9816 7.7417 15.0945 8.84814 14.8744 9.91559C14.6543 10.983 14.111 11.9636 13.3132 12.7332C13.0657 12.9719 12.6644 12.9719 12.4168 12.7332C12.1693 12.4944 12.1693 12.1072 12.4168 11.8685C13.0373 11.2699 13.4599 10.5073 13.6311 9.67702C13.8023 8.84678 13.7144 7.98622 13.3786 7.20415C13.0428 6.42208 12.4741 5.75363 11.7445 5.28334C11.0149 4.81304 10.157 4.56203 9.27952 4.56203Z" fill="white"/>
<path fill-rule="evenodd" clip-rule="evenodd" d="M9.27959 1.38302C7.75028 1.38302 6.25531 1.82048 4.98373 2.64009C3.71216 3.4597 2.72109 4.62464 2.13584 5.9876C1.5506 7.35056 1.39748 8.85032 1.69583 10.2972C1.99418 11.7441 2.73062 13.0732 3.812 14.1164C4.05953 14.3552 4.05953 14.7423 3.812 14.9811C3.56448 15.2199 3.16316 15.2199 2.91563 14.9811C1.65696 13.7669 0.799789 12.2199 0.452523 10.5358C0.105257 8.85168 0.283486 7.10604 0.964674 5.51963C1.64586 3.93322 2.79942 2.5773 4.27946 1.62332C5.7595 0.66934 7.49955 0.160156 9.27959 0.160156C11.0596 0.160156 12.7997 0.669341 14.2797 1.62332C15.7598 2.5773 16.9133 3.93322 17.5945 5.51963C18.2757 7.10604 18.4539 8.85168 18.1066 10.5358C17.7594 12.2199 16.9022 13.7669 15.6435 14.9811C15.396 15.2199 14.9947 15.2199 14.7472 14.9811C14.4996 14.7423 14.4996 14.3552 14.7472 14.1164C15.8286 13.0732 16.565 11.7441 16.8633 10.2972C17.1617 8.85032 17.0086 7.35056 16.4233 5.9876C15.8381 4.62464 14.847 3.4597 13.5754 2.64009C12.3039 1.82048 10.8089 1.38302 9.27959 1.38302Z" fill="white"/>
</svg>
