<svg width="19" height="19" viewBox="0 0 19 19" fill="none" xmlns="http://www.w3.org/2000/svg">
<path d="M2.71924 16.4843V14.9412C2.71924 14.1228 3.04438 13.3378 3.62315 12.759C4.20191 12.1803 4.98688 11.8551 5.80538 11.8551H8.89152C9.71002 11.8551 10.495 12.1803 11.0738 12.759C11.6525 13.3378 11.9777 14.1228 11.9777 14.9412V16.4843M12.7492 2.69698C13.413 2.86695 14.0014 3.25303 14.4216 3.79435C14.8418 4.33566 15.0699 5.00143 15.0699 5.68668C15.0699 6.37194 14.8418 7.0377 14.4216 7.57902C14.0014 8.12034 13.413 8.50641 12.7492 8.67638M16.6069 16.4843V14.9412C16.603 14.2601 16.3738 13.5994 15.9551 13.0621C15.5365 12.5248 14.9518 12.1411 14.2923 11.9708M4.26231 5.68282C4.26231 6.50132 4.58746 7.28629 5.16622 7.86505C5.74498 8.44382 6.52996 8.76896 7.34845 8.76896C8.16695 8.76896 8.95192 8.44382 9.53068 7.86505C10.1094 7.28629 10.4346 6.50132 10.4346 5.68282C10.4346 4.86433 10.1094 4.07935 9.53068 3.50059C8.95192 2.92183 8.16695 2.59668 7.34845 2.59668C6.52996 2.59668 5.74498 2.92183 5.16622 3.50059C4.58746 4.07935 4.26231 4.86433 4.26231 5.68282Z" stroke="#7D7D7D" stroke-width="1.44663" stroke-linecap="round" stroke-linejoin="round"/>
</svg>
