<svg width="17" height="16" viewBox="0 0 17 16" fill="none" xmlns="http://www.w3.org/2000/svg">
<path d="M2.59961 14V12.6667C2.59961 11.9594 2.88056 11.2811 3.38066 10.781C3.88075 10.281 4.55903 10 5.26628 10H7.93294C8.64019 10 9.31846 10.281 9.81856 10.781C10.3187 11.2811 10.5996 11.9594 10.5996 12.6667V14M11.2663 2.08667C11.8399 2.23354 12.3483 2.56714 12.7114 3.03488C13.0744 3.50262 13.2715 4.07789 13.2715 4.67C13.2715 5.26212 13.0744 5.83739 12.7114 6.30513C12.3483 6.77287 11.8399 7.10647 11.2663 7.25334M14.5996 14V12.6667C14.5962 12.0781 14.3982 11.5072 14.0365 11.0429C13.6747 10.5787 13.1695 10.2471 12.5996 10.1M3.93294 4.66667C3.93294 5.37391 4.21389 6.05219 4.71399 6.55229C5.21409 7.05238 5.89237 7.33333 6.59961 7.33333C7.30685 7.33333 7.98513 7.05238 8.48523 6.55229C8.98532 6.05219 9.26628 5.37391 9.26628 4.66667C9.26628 3.95942 8.98532 3.28115 8.48523 2.78105C7.98513 2.28095 7.30685 2 6.59961 2C5.89237 2 5.21409 2.28095 4.71399 2.78105C4.21389 3.28115 3.93294 3.95942 3.93294 4.66667Z" stroke="#131313" stroke-width="1.25" stroke-linecap="round" stroke-linejoin="round"/>
</svg>
