<svg width="90" height="116" viewBox="0 0 90 116" fill="none" xmlns="http://www.w3.org/2000/svg">
<path fill-rule="evenodd" clip-rule="evenodd" d="M45 115.385C47.385 115.385 90 69.8527 90 45C90 20.1472 69.8526 0 45 0C20.1471 0 0 20.1472 0 45C0 69.8527 42.615 115.385 45 115.385ZM45 67.5075C57.6004 67.5075 67.8152 57.2926 67.8152 44.6922C67.8152 32.0919 57.6004 21.8772 45 21.8772C32.3997 21.8772 22.1851 32.0919 22.1851 44.6922C22.1851 57.2926 32.3997 67.5075 45 67.5075Z" fill="#003220"/>
<path fill-rule="evenodd" clip-rule="evenodd" d="M0 45C0 69.8527 42.615 115.385 45 115.385L45 67.5075C32.3997 67.5075 22.1851 57.2926 22.1851 44.6922C22.1851 32.0919 32.3997 21.8772 45 21.8772L45 0C20.1471 0 0 20.1472 0 45Z" fill="#00754B"/>
</svg>
