<svg width="16" height="16" viewBox="0 0 16 16" fill="none" xmlns="http://www.w3.org/2000/svg">
<path d="M9.99292 11.1797C10.234 11.1797 10.4652 11.2755 10.6356 11.4459C10.8061 11.6164 10.9018 11.8476 10.9018 12.0886C10.9018 12.3297 10.8061 12.5609 10.6356 12.7313C10.4652 12.9018 10.234 12.9976 9.99292 12.9976C9.75185 12.9976 9.52066 12.9018 9.3502 12.7313C9.17975 12.5609 9.08398 12.3297 9.08398 12.0886C9.08398 11.8476 9.17975 11.6164 9.3502 11.4459C9.52066 11.2755 9.75185 11.1797 9.99292 11.1797ZM9.99292 6.93803C10.234 6.93803 10.4652 7.03379 10.6356 7.20425C10.8061 7.37471 10.9018 7.6059 10.9018 7.84696C10.9018 8.08802 10.8061 8.31921 10.6356 8.48967C10.4652 8.66013 10.234 8.75589 9.99292 8.75589C9.75185 8.75589 9.52066 8.66013 9.3502 8.48967C9.17975 8.31921 9.08398 8.08802 9.08398 7.84696C9.08398 7.6059 9.17975 7.37471 9.3502 7.20425C9.52066 7.03379 9.75185 6.93803 9.99292 6.93803ZM9.99292 2.69635C10.234 2.69635 10.4652 2.79211 10.6356 2.96257C10.8061 3.13303 10.9018 3.36422 10.9018 3.60528C10.9018 3.84634 10.8061 4.07754 10.6356 4.24799C10.4652 4.41845 10.234 4.51421 9.99292 4.51421C9.75185 4.51421 9.52066 4.41845 9.3502 4.24799C9.17975 4.07754 9.08398 3.84634 9.08398 3.60528C9.08398 3.36422 9.17975 3.13303 9.3502 2.96257C9.52066 2.79211 9.75185 2.69635 9.99292 2.69635Z" fill="#667085"/>
</svg>
