<svg width="25" height="26" viewBox="0 0 25 26" fill="none" xmlns="http://www.w3.org/2000/svg">
<path d="M18.0813 14.7618L20.7565 17.4369C21.1162 17.7967 21.1162 18.3799 20.7565 18.7397C18.8116 20.6845 15.7326 20.9034 13.5322 19.2531L11.9407 18.0594C10.1794 16.7384 8.61472 15.1738 7.29372 13.4125L6.10008 11.8209C4.4498 9.62057 4.66862 6.54155 6.6135 4.59667C6.97323 4.23693 7.55647 4.23693 7.91621 4.59667L10.5914 7.27184C10.9859 7.66635 10.9859 8.30598 10.5914 8.70049L9.5598 9.73207C9.39586 9.89601 9.35522 10.1465 9.4589 10.3538C10.6577 12.7514 12.6018 14.6955 14.9993 15.8942C15.2067 15.9979 15.4571 15.9573 15.6211 15.7934L16.6527 14.7618C17.0472 14.3673 17.6868 14.3673 18.0813 14.7618Z" fill="#333333"/>
<path d="M16.6519 14.762C17.0463 14.3675 17.686 14.3676 18.0806 14.762L20.7563 17.4368C21.1159 17.7964 21.1158 18.3798 20.7563 18.7395C20.4602 19.0357 20.137 19.2915 19.7954 19.5071L15.8511 15.5628L16.6519 14.762ZM6.61279 4.59693C6.97252 4.23721 7.55579 4.23723 7.91553 4.59693L10.5972 7.27857C10.9852 7.67348 10.9834 8.30806 10.5913 8.70045L9.78955 9.50123L5.84521 5.5569C6.06076 5.21538 6.31676 4.893 6.61279 4.59693Z" fill="#333333"/>
</svg>
