<svg width="16" height="16" viewBox="0 0 16 16" fill="none" xmlns="http://www.w3.org/2000/svg">
<path d="M1.18214 5.54596H14.1439M1.18214 10.1752H14.1439M7.27732 0.916748C5.97754 2.99959 5.28846 5.40544 5.28846 7.86057C5.28846 10.3157 5.97754 12.7215 7.27732 14.8044M8.04883 0.916748C9.3486 2.99959 10.0377 5.40544 10.0377 7.86057C10.0377 10.3157 9.3486 12.7215 8.04883 14.8044M0.719238 7.86057C0.719238 8.77244 0.898845 9.67539 1.24781 10.5179C1.59676 11.3603 2.10824 12.1258 2.75304 12.7706C3.39783 13.4154 4.16331 13.9269 5.00577 14.2758C5.84824 14.6248 6.75118 14.8044 7.66306 14.8044C8.57493 14.8044 9.47788 14.6248 10.3203 14.2758C11.1628 13.9269 11.9283 13.4154 12.5731 12.7706C13.2179 12.1258 13.7294 11.3603 14.0783 10.5179C14.4273 9.67539 14.6069 8.77244 14.6069 7.86057C14.6069 6.01895 13.8753 4.25276 12.5731 2.95055C11.2709 1.64833 9.50467 0.916748 7.66306 0.916748C5.82144 0.916748 4.05525 1.64833 2.75304 2.95055C1.45082 4.25276 0.719238 6.01895 0.719238 7.86057Z" stroke="#7D7D7D" stroke-width="1.44663" stroke-linecap="round" stroke-linejoin="round"/>
</svg>
