<svg width="17" height="16" viewBox="0 0 17 16" fill="none" xmlns="http://www.w3.org/2000/svg">
<path d="M2.99959 6H14.1996M2.99959 10H14.1996M8.2663 2C7.14319 3.79974 6.54777 5.87858 6.54777 8C6.54777 10.1214 7.14319 12.2003 8.2663 14M8.93294 2C10.056 3.79974 10.6515 5.87858 10.6515 8C10.6515 10.1214 10.056 12.2003 8.93294 14M2.59961 8C2.59961 8.78793 2.7548 9.56815 3.05633 10.2961C3.35786 11.0241 3.79982 11.6855 4.35697 12.2426C4.91412 12.7998 5.57556 13.2417 6.30351 13.5433C7.03146 13.8448 7.81168 14 8.59961 14C9.38754 14 10.1678 13.8448 10.8957 13.5433C11.6237 13.2417 12.2851 12.7998 12.8422 12.2426C13.3994 11.6855 13.8414 11.0241 14.1429 10.2961C14.4444 9.56815 14.5996 8.78793 14.5996 8C14.5996 6.4087 13.9675 4.88258 12.8422 3.75736C11.717 2.63214 10.1909 2 8.59961 2C7.00831 2 5.48219 2.63214 4.35697 3.75736C3.23175 4.88258 2.59961 6.4087 2.59961 8Z" stroke="#131313" stroke-width="1.25" stroke-linecap="round" stroke-linejoin="round"/>
</svg>
