<svg width="15" height="15" viewBox="0 0 15 15" fill="none" xmlns="http://www.w3.org/2000/svg">
<path d="M6.11945 1.13794L9.20559 13.4825M7.66252 7.31022L1.49023 8.8533M1.49023 2.68101C1.49023 2.27176 1.65281 1.87928 1.94219 1.58989C2.23157 1.30051 2.62406 1.13794 3.03331 1.13794H12.2917C12.701 1.13794 13.0935 1.30051 13.3828 1.58989C13.6722 1.87928 13.8348 2.27176 13.8348 2.68101V11.9394C13.8348 12.3487 13.6722 12.7412 13.3828 13.0306C13.0935 13.3199 12.701 13.4825 12.2917 13.4825H3.03331C2.62406 13.4825 2.23157 13.3199 1.94219 13.0306C1.65281 12.7412 1.49023 12.3487 1.49023 11.9394V2.68101Z" stroke="#003220" stroke-width="1.44663" stroke-linecap="round" stroke-linejoin="round"/>
</svg>
