<svg width="21" height="21" viewBox="0 0 21 21" fill="none" xmlns="http://www.w3.org/2000/svg">
<path d="M16.6682 3.1543H4.65726C2.8607 3.1543 1.4043 4.61072 1.4043 6.40731V16.4166C1.4043 18.2132 2.8607 19.6696 4.65726 19.6696H16.6682C18.4648 19.6696 19.9212 18.2132 19.9212 16.4166V6.40731C19.9212 4.61072 18.4648 3.1543 16.6682 3.1543Z" stroke="#7D7D7D" stroke-width="1.19311"/>
<path d="M5.40771 1.15283V4.65608" stroke="#7D7D7D" stroke-width="1.19311" stroke-linecap="round"/>
<path d="M2.40576 7.65918H18.9208" stroke="#7D7D7D" stroke-width="1.19311" stroke-linecap="round"/>
<path d="M16.418 1.15283V4.65608" stroke="#7D7D7D" stroke-width="1.19311" stroke-linecap="round"/>
<path d="M6.90918 11.5083C6.99416 11.5085 7.06348 11.5776 7.06348 11.6626C7.06333 11.7475 6.99407 11.8167 6.90918 11.8169C6.82416 11.8169 6.75503 11.7476 6.75488 11.6626C6.75488 11.5775 6.82407 11.5083 6.90918 11.5083Z" fill="#131313" stroke="#7D7D7D" stroke-width="1.19311"/>
<path d="M10.9146 11.5083C10.9995 11.5085 11.0688 11.5776 11.0688 11.6626C11.0687 11.7475 10.9994 11.8167 10.9146 11.8169C10.8295 11.8169 10.7604 11.7476 10.7603 11.6626C10.7603 11.5775 10.8294 11.5083 10.9146 11.5083Z" fill="#131313" stroke="#7D7D7D" stroke-width="1.19311"/>
<path d="M14.9175 11.5083C15.0025 11.5085 15.0718 11.5776 15.0718 11.6626C15.0716 11.7475 15.0024 11.8167 14.9175 11.8169C14.8325 11.8169 14.7633 11.7476 14.7632 11.6626C14.7632 11.5775 14.8324 11.5083 14.9175 11.5083Z" fill="#131313" stroke="#7D7D7D" stroke-width="1.19311"/>
<path d="M6.90918 15.512C6.99416 15.5121 7.06348 15.5812 7.06348 15.6663C7.06333 15.7512 6.99407 15.8204 6.90918 15.8206C6.82416 15.8206 6.75503 15.7513 6.75488 15.6663C6.75488 15.5811 6.82407 15.512 6.90918 15.512Z" fill="#131313" stroke="#7D7D7D" stroke-width="1.19311"/>
<path d="M10.9146 15.512C10.9995 15.5121 11.0688 15.5812 11.0688 15.6663C11.0687 15.7512 10.9994 15.8204 10.9146 15.8206C10.8295 15.8206 10.7604 15.7513 10.7603 15.6663C10.7603 15.5811 10.8294 15.512 10.9146 15.512Z" fill="#131313" stroke="#7D7D7D" stroke-width="1.19311"/>
<path d="M14.9175 15.512C15.0025 15.5121 15.0718 15.5812 15.0718 15.6663C15.0716 15.7512 15.0024 15.8204 14.9175 15.8206C14.8325 15.8206 14.7633 15.7513 14.7632 15.6663C14.7632 15.5811 14.8324 15.512 14.9175 15.512Z" fill="#131313" stroke="#7D7D7D" stroke-width="1.19311"/>
</svg>
