<svg width="15925" height="3353" viewBox="0 0 15925 3353" fill="none" xmlns="http://www.w3.org/2000/svg">
<rect x="20" width="15905" height="3352.57" fill="white"/>
<path d="M5044.25 1309.75C5036.84 1240.4 5005.6 1186.4 4950.55 1147.75C4896.02 1109.11 4825.08 1089.78 4737.72 1089.78C4676.31 1089.78 4623.64 1099.05 4579.7 1117.58C4535.76 1136.11 4502.14 1161.25 4478.85 1193.02C4455.55 1224.78 4443.64 1261.05 4443.11 1301.81C4443.11 1335.69 4450.79 1365.07 4466.14 1389.96C4482.02 1414.84 4503.46 1436.01 4530.46 1453.49C4557.46 1470.43 4587.37 1484.72 4620.2 1496.37C4653.02 1508.01 4686.11 1517.81 4719.46 1525.75L4871.93 1563.87C4933.34 1578.16 4992.37 1597.48 5049.01 1621.84C5106.19 1646.19 5157.28 1676.89 5202.28 1713.95C5247.81 1751.01 5283.81 1795.75 5310.28 1848.16C5336.75 1900.57 5349.98 1961.98 5349.98 2032.39C5349.98 2127.68 5325.63 2211.59 5276.92 2284.12C5228.22 2356.12 5157.81 2412.5 5065.69 2453.27C4974.1 2493.5 4863.19 2513.62 4732.96 2513.62C4606.43 2513.62 4496.58 2494.03 4403.41 2454.85C4310.76 2415.68 4238.23 2358.5 4185.82 2283.33C4133.94 2208.15 4105.88 2116.56 4101.65 2008.57H4391.49C4395.73 2065.21 4413.2 2112.33 4443.91 2149.92C4474.61 2187.5 4514.58 2215.56 4563.82 2234.09C4613.58 2252.62 4669.17 2261.89 4730.58 2261.89C4794.64 2261.89 4850.75 2252.36 4898.93 2233.3C4947.63 2213.71 4985.75 2186.71 5013.28 2152.3C5040.81 2117.36 5054.84 2076.59 5055.37 2030.01C5054.84 1987.65 5042.4 1952.71 5018.04 1925.18C4993.69 1897.13 4959.55 1873.83 4915.6 1855.3C4872.19 1836.24 4821.37 1819.3 4763.14 1804.48L4578.11 1756.83C4444.17 1722.42 4338.29 1670.28 4260.47 1600.39C4183.17 1529.98 4144.53 1436.54 4144.53 1320.08C4144.53 1224.25 4170.47 1140.34 4222.35 1068.34C4274.76 996.345 4345.97 940.492 4435.96 900.787C4525.96 860.552 4627.87 840.435 4741.7 840.435C4857.11 840.435 4958.22 860.552 5045.04 900.787C5132.4 940.492 5200.95 995.815 5250.72 1066.76C5300.48 1137.17 5326.16 1218.16 5327.75 1309.75H5044.25ZM5501.46 862.67H5834.19L6232.03 1582.13H6247.92L6645.76 862.67H6978.5L6386.89 1882.3V2489H6093.07V1882.3L5501.46 862.67ZM8523.63 862.67V2489H8261.57L7495.26 1381.22H7481.76V2489H7187.15V862.67H7450.79L8216.31 1971.24H8230.6V862.67H8523.63ZM10236.7 1411.4H9939.72C9931.25 1362.69 9915.63 1319.55 9892.87 1281.96C9870.1 1243.84 9841.78 1211.55 9807.9 1185.08C9774.01 1158.61 9735.37 1138.75 9691.96 1125.52C9649.08 1111.75 9602.75 1104.87 9552.99 1104.87C9464.58 1104.87 9386.23 1127.11 9317.93 1171.58C9249.64 1215.52 9196.17 1280.11 9157.52 1365.34C9118.88 1450.04 9099.55 1553.54 9099.55 1675.83C9099.55 1800.24 9118.88 1905.07 9157.52 1990.3C9196.7 2075.01 9250.17 2139.06 9317.93 2182.47C9386.23 2225.36 9464.31 2246.8 9552.19 2246.8C9600.9 2246.8 9646.43 2240.44 9688.78 2227.74C9731.66 2214.5 9770.04 2195.18 9803.93 2169.77C9838.34 2144.36 9867.19 2113.12 9890.48 2076.06C9914.31 2039.01 9930.72 1996.65 9939.72 1949.01L10236.7 1950.6C10225.6 2027.89 10201.5 2100.42 10164.5 2168.18C10127.9 2235.94 10080 2295.77 10020.7 2347.65C9961.42 2399 9892.07 2439.24 9812.66 2468.35C9733.25 2496.94 9645.1 2511.23 9548.22 2511.23C9405.28 2511.23 9277.7 2478.15 9165.46 2411.97C9053.23 2345.8 8964.82 2250.24 8900.23 2125.3C8835.65 2000.36 8803.35 1850.54 8803.35 1675.83C8803.35 1500.6 8835.91 1350.78 8901.03 1226.37C8966.14 1101.43 9054.82 1005.87 9167.05 939.698C9279.29 873.523 9406.34 840.435 9548.22 840.435C9638.75 840.435 9722.93 853.141 9800.75 878.552C9878.57 903.963 9947.92 941.286 10008.8 990.521C10069.7 1039.23 10119.7 1099.05 10158.9 1169.99C10198.6 1240.4 10224.5 1320.87 10236.7 1411.4ZM11843 862.67V2489H11580.9L10814.6 1381.22H10801.1V2489H10506.5V862.67H10770.2L11535.7 1971.24H11550V862.67H11843ZM13617.2 1675.83C13617.2 1851.07 13584.4 2001.15 13518.8 2126.09C13453.6 2250.5 13364.7 2345.8 13251.9 2411.97C13139.7 2478.15 13012.4 2511.23 12870 2511.23C12727.6 2511.23 12600 2478.15 12487.2 2411.97C12375 2345.27 12286 2249.71 12220.4 2125.3C12155.3 2000.36 12122.7 1850.54 12122.7 1675.83C12122.7 1500.6 12155.3 1350.78 12220.4 1226.37C12286 1101.43 12375 1005.87 12487.2 939.698C12600 873.523 12727.6 840.435 12870 840.435C13012.4 840.435 13139.7 873.523 13251.9 939.698C13364.7 1005.87 13453.6 1101.43 13518.8 1226.37C13584.4 1350.78 13617.2 1500.6 13617.2 1675.83ZM13321 1675.83C13321 1552.48 13301.7 1448.46 13263.1 1363.75C13224.9 1278.52 13172 1214.19 13104.2 1170.78C13036.5 1126.84 12958.4 1104.87 12870 1104.87C12781.6 1104.87 12703.5 1126.84 12635.7 1170.78C12567.9 1214.19 12514.7 1278.52 12476.1 1363.75C12438 1448.46 12418.9 1552.48 12418.9 1675.83C12418.9 1799.19 12438 1903.48 12476.1 1988.71C12514.7 2073.42 12567.9 2137.74 12635.7 2181.68C12703.5 2225.09 12781.6 2246.8 12870 2246.8C12958.4 2246.8 13036.5 2225.09 13104.2 2181.68C13172 2137.74 13224.9 2073.42 13263.1 1988.71C13301.7 1903.48 13321 1799.19 13321 1675.83ZM14083 862.67L14441.1 1458.25H14453.8L14813.5 862.67H15149.5L14648.4 1675.83L15157.4 2489H14815.9L14453.8 1897.39H14441.1L14079 2489H13739.1L14252.9 1675.83L13745.5 862.67H14083Z" fill="#003220"/>
<rect width="3353" height="3353" fill="#003220"/>
<path d="M752.285 979L2595.48 992.881" stroke="white" stroke-width="300"/>
<path d="M752.287 1434.88L1894.61 1446.16" stroke="white" stroke-width="300"/>
<path d="M2597.5 1899.43L1455.14 1893.18" stroke="white" stroke-width="120"/>
<path d="M2597.29 2305.21L754.057 2299.43" stroke="white" stroke-width="300"/>
<path d="M752.285 979L2595.48 992.881" stroke="white" stroke-width="300"/>
<path d="M752.287 1434.88L1894.61 1446.16" stroke="white" stroke-width="300"/>
<path d="M2597.5 1899.43L1455.14 1893.18" stroke="white" stroke-width="120"/>
<path d="M2597.29 2305.21L754.057 2299.43" stroke="white" stroke-width="300"/>
</svg>
