<svg width="25" height="18" viewBox="0 0 25 18" fill="none" xmlns="http://www.w3.org/2000/svg">
<path d="M4.11385 0.451172C1.91552 2.64949 0.555237 5.68585 0.555237 9.03798C0.555237 12.3901 1.91552 15.4265 4.11385 17.6248L5.82635 15.9123C4.06526 14.1634 2.98432 11.7343 2.98432 9.03798C2.98432 6.35385 4.06526 3.91262 5.82635 2.16368L4.11385 0.451172ZM21.2875 0.451172L19.575 2.16368C21.3361 3.91262 22.417 6.35385 22.417 9.03798C22.417 11.7343 21.3361 14.1634 19.575 15.9123L21.2875 17.6248C23.4858 15.4265 24.8461 12.3901 24.8461 9.03798C24.8461 5.68585 23.4858 2.64949 21.2875 0.451172ZM7.551 3.88833C6.22715 5.21218 5.41341 7.03399 5.41341 9.03798C5.41341 11.042 6.22715 12.8638 7.551 14.1876L9.2635 12.4751C8.38903 11.6007 7.84249 10.3861 7.84249 9.03798C7.84249 7.68984 8.38903 6.4753 9.2635 5.60083L7.551 3.88833ZM17.8503 3.88833L16.1378 5.60083C17.0123 6.4753 17.5588 7.68984 17.5588 9.03798C17.5588 10.3861 17.0123 11.6007 16.1378 12.4751L17.8503 14.1876C19.1742 12.8638 19.9879 11.042 19.9879 9.03798C19.9879 7.03399 19.1742 5.21218 17.8503 3.88833ZM12.7007 6.6089C12.0564 6.6089 11.4386 6.86482 10.983 7.32036C10.5275 7.77591 10.2716 8.39375 10.2716 9.03798C10.2716 9.68222 10.5275 10.3001 10.983 10.7556C11.4386 11.2111 12.0564 11.4671 12.7007 11.4671C13.3449 11.4671 13.9627 11.2111 14.4183 10.7556C14.8738 10.3001 15.1297 9.68222 15.1297 9.03798C15.1297 8.39375 14.8738 7.77591 14.4183 7.32036C13.9627 6.86482 13.3449 6.6089 12.7007 6.6089Z" fill="#7D8088"/>
</svg>
